Description

Sinopse e detalhes

Randall "Memphis" Raines (Nicolas Cage) um lendário ladrão de carros. Nenhuma fechadura ou alarme pode pará-lo e ele consegue roubar seu carro em apenas 60 segundos. Durante anos, Memphis iludiu a polícia local, aplicando todo tipo de golpe imaginável. Mas quando o cerco ficou muito intenso, ele decidiu por largar a vida de crimes e partir para uma vida completamente diferente. Mas agora, quando seu irmão caçula (Giovanni Ribisi) está tentando seguir seus passos no mundo do assalto a automóveis, Memphis volta a agir para tentar salvar a vida de seu irmão.

Format : Matroska
Format version : Version 2
File size : 719 MiB
Duration : 1h 57mn
Overall bit rate : 852 Kbps
Encoded date : UTC 2013-05-06 15:08:02
Writing application : mkvmerge v5.8.0 ('No Sleep / Pillow') built on Sep 2 2012 15:37:04
Writing library : libebml v1.2.3 + libmatroska v1.3.0

Video
ID : 1
Format : AVC
Format/Info : Advanced Video Codec
Format profile : High@L4.1
Format settings, CABAC : Yes
Format settings, ReFrames : 4 frames
Muxing mode : Header stripping
Codec ID : V_MPEG4/ISO/AVC
Duration : 1h 57mn
Bit rate : 451 Kbps
Width : 720 pixels
Height : 304 pixels
Display aspect ratio : 2.35:1
Frame rate mode : Constant
Frame rate : 23.976 fps
Color space : YUV
Chroma subsampling : 4:2:0
Bit depth : 8 bits
Scan type : Progressive
Bits/(Pixel*Frame) : 0.086
Stream size : 381 MiB (53%)
Title : 60 Segundos ( by fantasma )
Writing library : x264 core 130 r2273 b3065e6
Encoding settings : cabac=1 / ref=3 / deblock=1:0:0 / analyse=0x3:0x113 / me=hex / subme=7 / psy=1 / psy_rd=1.00:0.00 / mixed_ref=1 / me_range=16 / chroma_me=1 / trellis=1 / 8x8dct=1 / cqm=0 / deadzone=21,11 / fast_pskip=1 / chroma_qp_offset=-2 / threads=3 / lookahead_threads=1 / sliced_threads=0 / nr=0 / decimate=1 / interlaced=0 / bluray_compat=0 / constrained_intra=0 / bframes=3 / b_pyramid=2 / b_adapt=1 / b_bias=0 / direct=1 / weightb=1 / open_gop=0 / weightp=2 / keyint=240 / keyint_min=23 / scenecut=40 / intra_refresh=0 / rc_lookahead=40 / rc=crf / mbtree=1 / crf=23.0 / qcomp=0.60 / qpmin=0 / qpmax=69 / qpstep=4 / vbv_maxrate=62500 / vbv_bufsize=78125 / crf_max=0.0 / nal_hrd=none / ip_ratio=1.40 / aq=1:1.00
Language : Portuguese
Default : Yes
Forced : No

Audio
ID : 2
Format : AC-3
Format/Info : Audio Coding 3
Mode extension : CM (complete main)
Format settings, Endianness : Big
Muxing mode : Header stripping
Codec ID : A_AC3
Duration : 1h 57mn
Bit rate mode : Constant
Bit rate : 384 Kbps
Channel(s) : 6 channels
Channel positions : Front: L C R, Side: L R, LFE
Sampling rate : 48.0 KHz
Bit depth : 16 bits
Compression mode : Lossy
Stream size : 324 MiB (45%)
Title : by fantasma
Language : Portuguese
Default : Yes
Forced : No

Text #1
ID : 3
Format : VobSub
Muxing mode : zlib
Codec ID : S_VOBSUB
Codec ID/Info : The same subtitle format used on DVDs
Title : Spanish - (Caption/Normal Size Char)
Language : Spanish
Default : No
Forced : No

Text #2
ID : 4
Format : VobSub
Muxing mode : zlib
Codec ID : S_VOBSUB
Codec ID/Info : The same subtitle format used on DVDs
Title : Portuguese - (Caption/Normal Size Char)
Language : Portuguese
Default : No
Forced : No

Text #3
ID : 5
Format : VobSub
Muxing mode : zlib
Codec ID : S_VOBSUB
Codec ID/Info : The same subtitle format used on DVDs
Title : Spanish - (Forced Caption)
Language : Spanish
Default : No
Forced : Yes

Text #4
ID : 6
Format : VobSub
Muxing mode : zlib
Codec ID : S_VOBSUB
Codec ID/Info : The same subtitle format used on DVDs
Title : Portuguese - (Forced Caption)
Language : Portuguese
Default : No
Forced : Yes

Text #5
ID : 7
Format : VobSub
Muxing mode : zlib
Codec ID : S_VOBSUB
Codec ID/Info : The same subtitle format used on DVDs
Title : English - (Caption/Normal Size Char)
Language : English
Default : No
Forced : No

Text #6
ID : 8
Format : VobSub
Muxing mode : zlib
Codec ID : S_VOBSUB
Codec ID/Info : The same subtitle format used on DVDs
Title : Spanish - (Caption/Normal Size Char)
Language : Spanish
Default : No
Forced : No

Text #7
ID : 9
Format : VobSub
Muxing mode : zlib
Codec ID : S_VOBSUB
Codec ID/Info : The same subtitle format used on DVDs
Title : Portuguese - (Caption/Normal Size Char)
Language : Portuguese
Default : No
Forced : No

Text #8
ID : 10
Format : VobSub
Muxing mode : zlib
Codec ID : S_VOBSUB
Codec ID/Info : The same subtitle format used on DVDs
Title : Spanish - (Forced Caption)
Language : Spanish
Default : No
Forced : Yes

Text #9
ID : 11
Format : VobSub
Muxing mode : zlib
Codec ID : S_VOBSUB
Codec ID/Info : The same subtitle format used on DVDs
Title : Portuguese - (Forced Caption)
Language : Portuguese
Default : No
Forced : Yes

Text #10
ID : 12
Format : UTF-8
Codec ID : S_TEXT/UTF8
Codec ID/Info : UTF-8 Plain Text
Default : Yes
Forced : No

Menu
00:00:00.000 : en:Chapter 01
00:03:24.200 : en:Chapter 02
00:08:44.534 : en:Chapter 03
00:11:53.701 : en:Chapter 04
00:16:53.168 : en:Chapter 05
00:18:41.835 : en:Chapter 06
00:23:35.002 : en:Chapter 07
00:26:48.169 : en:Chapter 08
00:31:56.336 : en:Chapter 09
00:33:35.003 : en:Chapter 10
00:36:21.337 : en:Chapter 11
00:38:40.004 : en:Chapter 12
00:39:31.338 : en:Chapter 13
00:42:08.838 : en:Chapter 14
00:44:16.205 : en:Chapter 15
00:48:39.672 : en:Chapter 16
00:52:52.339 : en:Chapter 17
00:58:40.372 : en:Chapter 18
01:06:10.906 : en:Chapter 19
01:11:03.206 : en:Chapter 20
01:13:38.740 : en:Chapter 21
01:17:25.374 : en:Chapter 22
01:19:33.741 : en:Chapter 23
01:21:18.741 : en:Chapter 24
01:26:41.908 : en:Chapter 25
01:32:46.742 : en:Chapter 26
01:34:13.042 : en:Chapter 27
01:38:21.910 : en:Chapter 28
01:40:00.410 : en:Chapter 29
01:44:06.443 : en:Chapter 30
01:48:32.743 : en:Chapter 31
01:51:41.444 : en:Chapter 32
01:57:50.778 : en:Chapter 33
